#tb 0: 1/300
0,          0,          0,        1,   194400, 0x46ad80da
0,          1,          1,        1,   194400, 0x46ad80da
0,          2,          2,        1,   194400, 0x9392c3b9
0,          3,          3,        1,   194400, 0x9392c3b9
0,          4,          4,        1,   194400, 0x9392c3b9
0,          5,          5,        1,   194400, 0x9392c3b9
0,          6,          6,        1,   194400, 0x9392c3b9
0,          7,          7,        1,   194400, 0x9392c3b9
0,          8,          8,        1,   194400, 0x9392c3b9
0,          9,          9,        1,   194400, 0x9392c3b9
0,         10,         10,        1,   194400, 0x9392c3b9
0,         11,         11,        1,   194400, 0x9392c3b9
0,         12,         12,        1,   194400, 0x9392c3b9
0,         13,         13,        1,   194400, 0x9392c3b9
0,         14,         14,        1,   194400, 0x9392c3b9
0,         15,         15,        1,   194400, 0x9392c3b9
0,         16,         16,        1,   194400, 0x46ad80da
0,         17,         17,        1,   194400, 0x46ad80da
0,         18,         18,        1,   194400, 0x46ad80da
0,         19,         19,        1,   194400, 0x46ad80da
0,         20,         20,        1,   194400, 0x46ad80da
0,         21,         21,        1,   194400, 0x46ad80da
0,         22,         22,        1,   194400, 0x46ad80da
0,         23,         23,        1,   194400, 0x46ad80da
0,         24,         24,        1,   194400, 0x46ad80da
0,         25,         25,        1,   194400, 0x46ad80da
0,         26,         26,        1,   194400, 0x46ad80da
0,         27,         27,        1,   194400, 0x46ad80da
0,         28,         28,        1,   194400, 0x46ad80da
0,         29,         29,        1,   194400, 0x46ad80da
0,         30,         30,        1,   194400, 0x46ad80da
0,         31,         31,        1,   194400, 0x46ad80da
0,         32,         32,        1,   194400, 0x9392c3b9
0,         33,         33,        1,   194400, 0x9ff8cbb1
0,         34,         34,        1,   194400, 0xd015dba1
0,         35,         35,        1,   194400, 0x6a39f18b
0,         36,         36,        1,   194400, 0x7b8cf983
0,         37,         37,        1,   194400, 0x07a20f7c
0,         38,         38,        1,   194400, 0xa63e2962
0,         39,         39,        1,   194400, 0x2dd54447
0,         40,         40,        1,   194400, 0x90735e2d
0,         41,         41,        1,   194400, 0x90d98506
0,         42,         42,        1,   194400, 0xe5b08ffb
0,         43,         43,        1,   194400, 0x7a0d95f5
0,         44,         44,        1,   194400, 0xff6bacde
0,         45,         45,        1,   194400, 0xd998c2c8
0,         46,         46,        1,   194400, 0x3d1ddfab
0,         47,         47,        1,   194400, 0x817de4a6
0,         48,         48,        1,   194400, 0xfa3ef694
0,         49,         49,        1,   194400, 0x0b5bfb8f
0,         50,         50,        1,   194400, 0x00f62376
0,         51,         51,        1,   194400, 0x2f6b2d6c
0,         52,         52,        1,   194400, 0x40cb4752
0,         53,         53,        1,   194400, 0xd8456435
0,         54,         54,        1,   194400, 0x459f6a2f
0,         55,         55,        1,   194400, 0x9b678910
0,         56,         56,        1,   194400, 0x8791a1f7
0,         57,         57,        1,   194400, 0xdb4ac5d3
0,         58,         58,        1,   194400, 0xb223c8d0
0,         59,         59,        1,   194400, 0x4a9ce7b1
0,         60,         60,        1,   194400, 0x187eeaae
0,         61,         61,        1,   194400, 0xc712f8a0
0,         62,         62,        1,   194400, 0x549c00a7
0,         63,         63,        1,   194400, 0x4d991295
0,         64,         64,        1,   194400, 0xc41b2681
0,         65,         65,        1,   194400, 0xed5a3077
0,         66,         66,        1,   194400, 0x85ad4463
0,         67,         67,        1,   194400, 0xb98f4760
0,         68,         68,        1,   194400, 0x87ef5e49
0,         69,         69,        1,   194400, 0x830a6146
0,         70,         70,        1,   194400, 0xe33a792e
0,         71,         71,        1,   194400, 0x83517a2d
0,         72,         72,        1,   194400, 0xa97e9314
0,         73,         73,        1,   194400, 0x39059611
0,         74,         74,        1,   194400, 0xbf4eb9ed
0,         75,         75,        1,   194400, 0xe5afc4e2
0,         76,         76,        1,   194400, 0x35d4cdd9
0,         77,         77,        1,   194400, 0xb376e1c5
0,         78,         78,        1,   194400, 0x6128e3c3
0,         79,         79,        1,   194400, 0x30b7f7af
0,         80,         80,        1,   194400, 0xf1effaac
0,         81,         81,        1,   194400, 0x483914a1
0,         82,         82,        1,   194400, 0xbd48199c
0,         83,         83,        1,   194400, 0x382f2d88
0,         84,         84,        1,   194400, 0x5a573085
0,         85,         85,        1,   194400, 0x89733580
0,         86,         86,        1,   194400, 0xd1325a5b
0,         87,         87,        1,   194400, 0x655b6253
0,         88,         88,        1,   194400, 0x55146352
0,         89,         89,        1,   194400, 0xda527c39
0,         90,         90,        1,   194400, 0xb0cd7e37
0,         91,         91,        1,   194400, 0x25e7991c
0,         92,         92,        1,   194400, 0x5c22a411
0,         93,         93,        1,   194400, 0x1e2abdf7
0,         94,         94,        1,   194400, 0x8308bff5
0,         95,         95,        1,   194400, 0xfdbfd6de
0,         96,         96,        1,   194400, 0xd4d4d9db
0,         97,         97,        1,   194400, 0xa449fbb9
0,         98,         98,        1,   194400, 0x3dcafdb7
0,         99,         99,        1,   194400, 0x6f1f01c2
0,        100,        100,        1,   194400, 0xf54a1da6
0,        101,        101,        1,   194400, 0x88d11fa4
0,        102,        102,        1,   194400, 0x59642d96
0,        103,        103,        1,   194400, 0x8ba44182
0,        104,        104,        1,   194400, 0x88f56360
0,        105,        105,        1,   194400, 0xfb246d56
0,        106,        106,        1,   194400, 0xad128043
0,        107,        107,        1,   194400, 0x3a4f8a39
0,        108,        108,        1,   194400, 0x563d9d26
0,        109,        109,        1,   194400, 0x6ff8a320
0,        110,        110,        1,   194400, 0xcdb9b70c
0,        111,        111,        1,   194400, 0x99c2bd06
0,        112,        112,        1,   194400, 0x4b47cef4
0,        113,        113,        1,   194400, 0x10b9dce6
0,        114,        114,        1,   194400, 0xdd39f1d1
0,        115,        115,        1,   194400, 0xbcf104cd
0,        116,        116,        1,   194400, 0x85ec17ba
0,        117,        117,        1,   194400, 0x069219b8
0,        118,        118,        1,   194400, 0x84dd3899
0,        119,        119,        1,   194400, 0xacca4190
0,        120,        120,        1,   194400, 0xcf5b5d74
0,        121,        121,        1,   194400, 0x4b8c626f
0,        122,        122,        1,   194400, 0xf0817958
0,        123,        123,        1,   194400, 0xc0887e53
0,        124,        124,        1,   194400, 0x42e6854c
0,        125,        125,        1,   194400, 0x036c9140
0,        126,        126,        1,   194400, 0x0f21a62b
0,        127,        127,        1,   194400, 0xcdaeaa27
0,        128,        128,        1,   194400, 0xe425bc15
0,        129,        129,        1,   194400, 0x8e18c20f
0,        130,        130,        1,   194400, 0x767cd5fb
0,        131,        131,        1,   194400, 0x554ae6ea
0,        132,        132,        1,   194400, 0xeac1f9d7
0,        133,        133,        1,   194400, 0x0b32fed2
0,        134,        134,        1,   194400, 0xe30c19c6
0,        135,        135,        1,   194400, 0x6a8a23bc
0,        136,        136,        1,   194400, 0x26bf36a9
0,        137,        137,        1,   194400, 0x1e4f3fa0
0,        138,        138,        1,   194400, 0x231f5986
0,        139,        139,        1,   194400, 0xf557756a
0,        140,        140,        1,   194400, 0x6bce805f
0,        141,        141,        1,   194400, 0xcd80924d
0,        142,        142,        1,   194400, 0x65dc9f40
0,        143,        143,        1,   194400, 0x2ab7af30
0,        144,        144,        1,   194400, 0xd43cb728
0,        145,        145,        1,   194400, 0x05d9c916
0,        146,        146,        1,   194400, 0x43cad10e
0,        147,        147,        1,   194400, 0x06b5e0fe
0,        148,        148,        1,   194400, 0xa142f0ee
0,        149,        149,        1,   194400, 0xed7f03ea
0,        150,        150,        1,   194400, 0xf26019d4
0,        151,        151,        1,   194400, 0x3b7f29c4
0,        152,        152,        1,   194400, 0x30282ebf
0,        153,        153,        1,   194400, 0xaeff4aa3
0,        154,        154,        1,   194400, 0x1d355697
0,        155,        155,        1,   194400, 0x2ead6f7e
0,        156,        156,        1,   194400, 0xf1b67776
0,        157,        157,        1,   194400, 0x93b38b62
0,        158,        158,        1,   194400, 0x9469905d
0,        159,        159,        1,   194400, 0x27bf9756
0,        160,        160,        1,   194400, 0xd016a548
0,        161,        161,        1,   194400, 0x6889b835
0,        162,        162,        1,   194400, 0x6a05be2f
0,        163,        163,        1,   194400, 0xe0a1ce1f
0,        164,        164,        1,   194400, 0x8fdbd617
0,        165,        165,        1,   194400, 0xd68fe805
0,        166,        166,        1,   194400, 0x0d1dfbf1
0,        167,        167,        1,   194400, 0x0fe70bf0
0,        168,        168,        1,   194400, 0x0a8f13e8
0,        169,        169,        1,   194400, 0x0ca42bd0
0,        170,        170,        1,   194400, 0x6f3838c3
0,        171,        171,        1,   194400, 0x045448b3
0,        172,        172,        1,   194400, 0x764349b2
0,        173,        173,        1,   194400, 0xed1651aa
0,        174,        174,        1,   194400, 0xbb376398
0,        175,        175,        1,   194400, 0xd0d5718a
0,        176,        176,        1,   194400, 0xcd977e7d
0,        177,        177,        1,   194400, 0x8cb39665
0,        178,        178,        1,   194400, 0xb935b04b
0,        179,        179,        1,   194400, 0x0292be3d
0,        180,        180,        1,   194400, 0x4f21c833
0,        181,        181,        1,   194400, 0xa5c7d823
0,        182,        182,        1,   194400, 0xfb8ee01b
0,        183,        183,        1,   194400, 0xea53ee0d
0,        184,        184,        1,   194400, 0x803efcfe
0,        185,        185,        1,   194400, 0x2c0e0aff
0,        186,        186,        1,   194400, 0x3df318f1
0,        187,        187,        1,   194400, 0xc4cb26e3
0,        188,        188,        1,   194400, 0x92a033d6
0,        189,        189,        1,   194400, 0x1b2048c1
0,        190,        190,        1,   194400, 0x236858b1
0,        191,        191,        1,   194400, 0x482f6d9c
0,        192,        192,        1,   194400, 0x9ee97891
0,        193,        193,        1,   194400, 0xe0dc8683
0,        194,        194,        1,   194400, 0x461b9079
0,        195,        195,        1,   194400, 0xd346a960
0,        196,        196,        1,   194400, 0xa384b554
0,        197,        197,        1,   194400, 0x3246cf3a
0,        198,        198,        1,   194400, 0xa53fe722
0,        199,        199,        1,   194400, 0xe620fd0c
0,        200,        200,        1,   194400, 0xd6370414
0,        201,        201,        1,   194400, 0xf57f1404
0,        202,        202,        1,   194400, 0x8c6420f7
0,        203,        203,        1,   194400, 0xd4be3add
0,        204,        204,        1,   194400, 0xa8dc4ec9
0,        205,        205,        1,   194400, 0xda1563b4
0,        206,        206,        1,   194400, 0xd51873a4
0,        207,        207,        1,   194400, 0x68588196
0,        208,        208,        1,   194400, 0x40d18e89
0,        209,        209,        1,   194400, 0x1b75a275
0,        210,        210,        1,   194400, 0xedd1a572
0,        211,        211,        1,   194400, 0x55daad6a
0,        212,        212,        1,   194400, 0xcb93b067
0,        213,        213,        1,   194400, 0x5888ba5d
0,        214,        214,        1,   194400, 0x2c11c84f
0,        215,        215,        1,   194400, 0x0fbae334
0,        216,        216,        1,   194400, 0x773fed2a
0,        217,        217,        1,   194400, 0x2f87fc1b
0,        218,        218,        1,   194400, 0xe8120521
0,        219,        219,        1,   194400, 0x64ac0f17
0,        220,        220,        1,   194400, 0xba531c0a
0,        221,        221,        1,   194400, 0xf49433f2
0,        222,        222,        1,   194400, 0x79e234f1
0,        223,        223,        1,   194400, 0x043937ee
0,        224,        224,        1,   194400, 0x9e6141e4
0,        225,        225,        1,   194400, 0x34204fd6
0,        226,        226,        1,   194400, 0xa1dd60c5
0,        227,        227,        1,   194400, 0x12b36eb7
0,        228,        228,        1,   194400, 0x68987aab
0,        229,        229,        1,   194400, 0x3207889d
0,        230,        230,        1,   194400, 0x3bb59194
0,        231,        231,        1,   194400, 0x0a119f86
0,        232,        232,        1,   194400, 0x472bab7a
0,        233,        233,        1,   194400, 0x7364c85d
0,        234,        234,        1,   194400, 0xa812d84d
0,        235,        235,        1,   194400, 0xf384f530
0,        236,        236,        1,   194400, 0x1546052f
0,        237,        237,        1,   194400, 0xeb611a1a
0,        238,        238,        1,   194400, 0xc39d250f
0,        239,        239,        1,   194400, 0x7bd73301
0,        240,        240,        1,   194400, 0x10f73cf7
0,        241,        241,        1,   194400, 0x95dc55de
0,        242,        242,        1,   194400, 0x392e61d2
0,        243,        243,        1,   194400, 0x113c7bb8
0,        244,        244,        1,   194400, 0x17128fa4
0,        245,        245,        1,   194400, 0xf95e9b98
0,        246,        246,        1,   194400, 0xdc47aa89
0,        247,        247,        1,   194400, 0xea5dc073
0,        248,        248,        1,   194400, 0x8dfadc57
0,        249,        249,        1,   194400, 0xe5c3e84b
0,        250,        250,        1,   194400, 0x8952f43f
0,        251,        251,        1,   194400, 0xec9e0240
0,        252,        252,        1,   194400, 0x8f460c36
0,        253,        253,        1,   194400, 0xd43e182a
0,        254,        254,        1,   194400, 0xb00b2919
0,        255,        255,        1,   194400, 0xc9f6350d
0,        256,        256,        1,   194400, 0x87ca44fd
0,        257,        257,        1,   194400, 0xa6a250f1
0,        258,        258,        1,   194400, 0x34fa60e1
0,        259,        259,        1,   194400, 0xe1a372cf
0,        260,        260,        1,   194400, 0xc80785bc
0,        261,        261,        1,   194400, 0x43e297aa
0,        262,        262,        1,   194400, 0x7e8ea49d
0,        263,        263,        1,   194400, 0xd009b091
0,        264,        264,        1,   194400, 0x9126bc85
0,        265,        265,        1,   194400, 0x175ad36e
0,        266,        266,        1,   194400, 0xf9dae160
0,        267,        267,        1,   194400, 0x1b98f948
0,        268,        268,        1,   194400, 0xa6c5133d
0,        269,        269,        1,   194400, 0xf5d42729
0,        270,        270,        1,   194400, 0x8cfe311f
0,        271,        271,        1,   194400, 0x18733e12
0,        272,        272,        1,   194400, 0x24ac50ff
0,        273,        273,        1,   194400, 0x0d1c64eb
0,        274,        274,        1,   194400, 0xde947cd3
0,        275,        275,        1,   194400, 0x08268dc2
0,        276,        276,        1,   194400, 0xfec69fb0
0,        277,        277,        1,   194400, 0xba83aba4
0,        278,        278,        1,   194400, 0xfbe2bc93
0,        279,        279,        1,   194400, 0xe22fcc83
0,        280,        280,        1,   194400, 0x050fcf80
0,        281,        281,        1,   194400, 0xee1ed778
0,        282,        282,        1,   194400, 0xb44cda75
0,        283,        283,        1,   194400, 0xa29fe46b
0,        284,        284,        1,   194400, 0xa99bf55a
0,        285,        285,        1,   194400, 0x4f840d51
0,        286,        286,        1,   194400, 0x58941945
0,        287,        287,        1,   194400, 0x62cb2638
0,        288,        288,        1,   194400, 0x22ee312d
0,        289,        289,        1,   194400, 0xea8f3925
0,        290,        290,        1,   194400, 0xed294c12
0,        291,        291,        1,   194400, 0xafa75e00
0,        292,        292,        1,   194400, 0x19d45ffe
0,        293,        293,        1,   194400, 0x7fcf61fc
0,        294,        294,        1,   194400, 0x2c126df0
0,        295,        295,        1,   194400, 0x331379e4
0,        296,        296,        1,   194400, 0x99fe8cd1
0,        297,        297,        1,   194400, 0xa5ec98c5
0,        298,        298,        1,   194400, 0xac68a6b7
0,        299,        299,        1,   194400, 0x28e6b2ab
